<svg version="1.1" xmlns="http://www.w3.org/2000/svg" xmlns:xlink="http://www.w3.org/1999/xlink" width="1446" height="950"><defs/><g><g><rect fill="#C0C0C0" stroke="none" x="197" y="42" width="1110" height="930" transform="matrix(1 0 0 1 -35 -25)" fill-opacity="0.2"/></g><g><rect fill="#ffffff" stroke="none" x="190" y="35" width="1110" height="930" transform="matrix(1 0 0 1 -35 -25)"/></g><g><path fill="none" stroke="#555555" paint-order="fill stroke markers" d=" M 155 10 L 1265 10 L 1265 940 L 155 940 L 155 10 Z Z" stroke-miterlimit="10" stroke-dasharray=""/></g><g><g><path fill="none" stroke="none"/><text fill="#000000" stroke="none" font-family="Arial" font-size="13px" font-style="normal" font-weight="bold" text-decoration="undefined" x="745.5" y="48.5" text-anchor="middle" dominant-baseline="central" transform="matrix(1 0 0 1 -35 -25)">Hệ thống Z-TECH POS</text></g></g><g><path fill="none" stroke="#000000" paint-order="fill stroke markers" d=" M 120 165 L 245 165 L 245 110" stroke-miterlimit="10" stroke-dasharray=""/></g><g><path fill="none" stroke="#000000" paint-order="fill stroke markers" d=" M 120 175 L 525 175 L 525 110" stroke-miterlimit="10" stroke-dasharray=""/></g><g><path fill="none" stroke="#000000" paint-order="fill stroke markers" d=" M 120 215 L 310 215" stroke-miterlimit="10" stroke-dasharray=""/></g><g><path fill="none" stroke="#000000" paint-order="fill stroke markers" d=" M 65 260 L 65 275 L 215 275" stroke-miterlimit="10" stroke-dasharray=""/></g><g><path fill="none" stroke="#000000" paint-order="fill stroke markers" d=" M 65 260 L 65 275 L 490 275" stroke-miterlimit="10" stroke-dasharray=""/></g><g><path fill="none" stroke="#000000" paint-order="fill stroke markers" d=" M 65 260 L 65 370 L 215 370" stroke-miterlimit="10" stroke-dasharray=""/></g><g><path fill="none" stroke="#000000" paint-order="fill stroke markers" d=" M 65 260 L 65 370 L 490 370" stroke-miterlimit="10" stroke-dasharray=""/></g><g><path fill="none" stroke="#000000" paint-order="fill stroke markers" d=" M 65 260 L 65 370 L 765 370" stroke-miterlimit="10" stroke-dasharray=""/></g><g><path fill="none" stroke="#000000" paint-order="fill stroke markers" d=" M 1315 660 L 315 660 L 315 550" stroke-miterlimit="10" stroke-dasharray=""/></g><g><path fill="none" stroke="#000000" paint-order="fill stroke markers" d=" M 1315 670 L 655 670 L 655 550" stroke-miterlimit="10" stroke-dasharray=""/></g><g><path fill="none" stroke="#000000" paint-order="fill stroke markers" d=" M 1315 680 L 975 680 L 975 550" stroke-miterlimit="10" stroke-dasharray=""/></g><g><path fill="none" stroke="#000000" paint-order="fill stroke markers" d=" M 1315 690 L 315 690 L 315 660" stroke-miterlimit="10" stroke-dasharray=""/></g><g><path fill="none" stroke="#000000" paint-order="fill stroke markers" d=" M 1315 700 L 655 700 L 655 660" stroke-miterlimit="10" stroke-dasharray=""/></g><g><path fill="none" stroke="#000000" paint-order="fill stroke markers" d=" M 1315 710 L 975 710 L 975 660" stroke-miterlimit="10" stroke-dasharray=""/></g><g><path fill="none" stroke="#000000" paint-order="fill stroke markers" d=" M 1315 740 L 495 740" stroke-miterlimit="10" stroke-dasharray=""/></g><g><path fill="none" stroke="#000000" paint-order="fill stroke markers" d=" M 1315 740 L 845 740" stroke-miterlimit="10" stroke-dasharray=""/></g><g><path fill="none" stroke="#000000" paint-order="fill stroke markers" d=" M 1315 740 L 1185 740" stroke-miterlimit="10" stroke-dasharray=""/></g><g><path fill="none" stroke="#000000" paint-order="fill stroke markers" d=" M 1370 625 L 1370 445 L 65 445 L 65 260" stroke-miterlimit="10" stroke-dasharray=""/></g><g><path fill="#FFFFFF" stroke="none" paint-order="stroke fill markers" d=" M 73.41903551203198 280.3253497152483 L 65 260 L 56.58096448796803 280.3253497152483"/></g><g><path fill="none" stroke="#000000" paint-order="fill stroke markers" d=" M 73.41903551203198 280.3253497152483 L 65 260 L 56.58096448796803 280.3253497152483 L 73.41903551203198 280.3253497152483" stroke-miterlimit="10" stroke-dasharray=""/></g><g><path fill="#ffffff" stroke="none" paint-order="stroke fill markers" d=" M 51.33818181818182 144.95 C 51.33818181818182 137.24562704 57.45478547781818 131 65 131 C 72.54521452218182 131 78.66181818181818 137.24562704 78.66181818181818 144.95 C 78.66181818181818 152.65437296 72.54521452218182 158.9 65 158.9 C 57.45478547781818 158.9 51.33818181818182 152.65437296 51.33818181818182 144.95 Z"/></g><g><path fill="none" stroke="#000000" paint-order="fill stroke markers" d=" M 51.33818181818182 144.95 C 51.33818181818182 137.24562704 57.45478547781818 131 65 131 C 72.54521452218182 131 78.66181818181818 137.24562704 78.66181818181818 144.95 C 78.66181818181818 152.65437296 72.54521452218182 158.9 65 158.9 C 57.45478547781818 158.9 51.33818181818182 152.65437296 51.33818181818182 144.95 Z" stroke-miterlimit="10" stroke-dasharray=""/></g><g><path fill="none" stroke="#000000" paint-order="fill stroke markers" d=" M 65 158.9 L 65 186.1" stroke-miterlimit="10" stroke-dasharray=""/></g><g><path fill="none" stroke="#000000" paint-order="fill stroke markers" d=" M 50.53454545454545 169.1 L 79.46545454545455 169.1" stroke-miterlimit="10" stroke-dasharray=""/></g><g><path fill="none" stroke="#000000" paint-order="fill stroke markers" d=" M 65 186.1 L 44.90909090909091 214" stroke-miterlimit="10" stroke-dasharray=""/></g><g><path fill="none" stroke="#000000" paint-order="fill stroke markers" d=" M 65 186.1 L 85.0909090909091 214" stroke-miterlimit="10" stroke-dasharray=""/></g><g><path fill="none" stroke="#000000" paint-order="fill stroke markers" d=" M 10 240 L 120 240" stroke-miterlimit="10" stroke-dasharray=""/></g><g><path fill="none" stroke="#000000" paint-order="fill stroke markers" d=" M 10 250 L 120 250" stroke-miterlimit="10" stroke-dasharray=""/></g><g><g><path fill="none" stroke="none"/><text fill="#000000" stroke="none" font-family="Arial" font-size="13px" font-style="normal" font-weight="bold" text-decoration="undefined" x="100.5" y="253.5" text-anchor="middle" dominant-baseline="central" transform="matrix(1 0 0 1 -35 -25)">Nhân viên</text></g></g><g><path fill="#ffffff" stroke="none" paint-order="stroke fill markers" d=" M 1361.338181818182 639.95 C 1361.338181818182 632.24562704 1367.4547854778182 626 1375 626 C 1382.5452145221818 626 1388.661818181818 632.24562704 1388.661818181818 639.95 C 1388.661818181818 647.65437296 1382.5452145221818 653.9 1375 653.9 C 1367.4547854778182 653.9 1361.338181818182 647.65437296 1361.338181818182 639.95 Z"/></g><g><path fill="none" stroke="#000000" paint-order="fill stroke markers" d=" M 1361.338181818182 639.95 C 1361.338181818182 632.24562704 1367.4547854778182 626 1375 626 C 1382.5452145221818 626 1388.661818181818 632.24562704 1388.661818181818 639.95 C 1388.661818181818 647.65437296 1382.5452145221818 653.9 1375 653.9 C 1367.4547854778182 653.9 1361.338181818182 647.65437296 1361.338181818182 639.95 Z" stroke-miterlimit="10" stroke-dasharray=""/></g><g><path fill="none" stroke="#000000" paint-order="fill stroke markers" d=" M 1375 653.9 L 1375 681.1" stroke-miterlimit="10" stroke-dasharray=""/></g><g><path fill="none" stroke="#000000" paint-order="fill stroke markers" d=" M 1360.5345454545454 664.1 L 1389.4654545454546 664.1" stroke-miterlimit="10" stroke-dasharray=""/></g><g><path fill="none" stroke="#000000" paint-order="fill stroke markers" d=" M 1375 681.1 L 1354.909090909091 709" stroke-miterlimit="10" stroke-dasharray=""/></g><g><path fill="none" stroke="#000000" paint-order="fill stroke markers" d=" M 1375 681.1 L 1395.090909090909 709" stroke-miterlimit="10" stroke-dasharray=""/></g><g><path fill="none" stroke="#000000" paint-order="fill stroke markers" d=" M 1315 735 L 1435 735" stroke-miterlimit="10" stroke-dasharray=""/></g><g><path fill="none" stroke="#000000" paint-order="fill stroke markers" d=" M 1315 745 L 1435 745" stroke-miterlimit="10" stroke-dasharray=""/></g><g><g><path fill="none" stroke="none"/><text fill="#000000" stroke="none" font-family="Arial" font-size="13px" font-style="normal" font-weight="bold" text-decoration="undefined" x="1410.5" y="748.5" text-anchor="middle" dominant-baseline="central" transform="matrix(1 0 0 1 -35 -25)">Quản trị viên</text></g></g><g><path fill="#C0C0C0" stroke="none" paint-order="stroke fill markers" d=" M 217 77 C 217 65.95430400000001 259.532944 57 312 57 C 364.467056 57 407 65.95430400000001 407 77 C 407 88.04569599999999 364.467056 97 312 97 C 259.532944 97 217 88.04569599999999 217 77 Z" fill-opacity="0.2"/></g><g><path fill="#ffffff" stroke="none" paint-order="stroke fill markers" d=" M 210 70 C 210 58.95430400000001 252.532944 50 305 50 C 357.467056 50 400 58.95430400000001 400 70 C 400 81.04569599999999 357.467056 90 305 90 C 252.532944 90 210 81.04569599999999 210 70 Z"/></g><g><path fill="none" stroke="#000000" paint-order="fill stroke markers" d=" M 210 70 C 210 58.95430400000001 252.532944 50 305 50 C 357.467056 50 400 58.95430400000001 400 70 C 400 81.04569599999999 357.467056 90 305 90 C 252.532944 90 210 81.04569599999999 210 70 Z" stroke-miterlimit="10" stroke-dasharray=""/></g><g><path fill="none" stroke="#000000" paint-order="fill stroke markers" d=" M 210 90 L 399 90" stroke-miterlimit="10" stroke-dasharray=""/></g><g><path fill="none" stroke="#000000" paint-order="fill stroke markers" d=" M 210 100 L 399 100" stroke-miterlimit="10" stroke-dasharray=""/></g><g><g><path fill="none" stroke="none"/><text fill="#000000" stroke="none" font-family="Arial" font-size="13px" font-style="normal" font-weight="bold" text-decoration="undefined" x="340" y="96" text-anchor="middle" dominant-baseline="central" transform="matrix(1 0 0 1 -35 -25)">Đăng nhập</text></g></g><g><path fill="#C0C0C0" stroke="none" paint-order="stroke fill markers" d=" M 497 77 C 497 65.95430400000001 539.532944 57 592 57 C 644.467056 57 687 65.95430400000001 687 77 C 687 88.04569599999999 644.467056 97 592 97 C 539.532944 97 497 88.04569599999999 497 77 Z" fill-opacity="0.2"/></g><g><path fill="#ffffff" stroke="none" paint-order="stroke fill markers" d=" M 490 70 C 490 58.95430400000001 532.532944 50 585 50 C 637.467056 50 680 58.95430400000001 680 70 C 680 81.04569599999999 637.467056 90 585 90 C 532.532944 90 490 81.04569599999999 490 70 Z"/></g><g><path fill="none" stroke="#000000" paint-order="fill stroke markers" d=" M 490 70 C 490 58.95430400000001 532.532944 50 585 50 C 637.467056 50 680 58.95430400000001 680 70 C 680 81.04569599999999 637.467056 90 585 90 C 532.532944 90 490 81.04569599999999 490 70 Z" stroke-miterlimit="10" stroke-dasharray=""/></g><g><path fill="none" stroke="#000000" paint-order="fill stroke markers" d=" M 490 90 L 679 90" stroke-miterlimit="10" stroke-dasharray=""/></g><g><path fill="none" stroke="#000000" paint-order="fill stroke markers" d=" M 490 100 L 679 100" stroke-miterlimit="10" stroke-dasharray=""/></g><g><g><path fill="none" stroke="none"/><text fill="#000000" stroke="none" font-family="Arial" font-size="13px" font-style="normal" font-weight="bold" text-decoration="undefined" x="620" y="96" text-anchor="middle" dominant-baseline="central" transform="matrix(1 0 0 1 -35 -25)">Đăng xuất</text></g></g><g><path fill="#C0C0C0" stroke="none" paint-order="stroke fill markers" d=" M 317 179.5 C 317 167.073592 370.725824 157 437 157 C 503.274176 157 557 167.073592 557 179.5 C 557 191.926408 503.274176 202 437 202 C 370.725824 202 317 191.926408 317 179.5 Z" fill-opacity="0.2"/></g><g><path fill="#ffffff" stroke="none" paint-order="stroke fill markers" d=" M 310 172.5 C 310 160.073592 363.725824 150 430 150 C 496.274176 150 550 160.073592 550 172.5 C 550 184.926408 496.274176 195 430 195 C 363.725824 195 310 184.926408 310 172.5 Z"/></g><g><path fill="none" stroke="#000000" paint-order="fill stroke markers" d=" M 310 172.5 C 310 160.073592 363.725824 150 430 150 C 496.274176 150 550 160.073592 550 172.5 C 550 184.926408 496.274176 195 430 195 C 363.725824 195 310 184.926408 310 172.5 Z" stroke-miterlimit="10" stroke-dasharray=""/></g><g><path fill="none" stroke="#000000" paint-order="fill stroke markers" d=" M 310 195 L 549 195" stroke-miterlimit="10" stroke-dasharray=""/></g><g><path fill="none" stroke="#000000" paint-order="fill stroke markers" d=" M 310 205 L 549 205" stroke-miterlimit="10" stroke-dasharray=""/></g><g><g><path fill="none" stroke="none"/><text fill="#000000" stroke="none" font-family="Arial" font-size="13px" font-style="normal" font-weight="bold" text-decoration="undefined" x="465" y="198.5" text-anchor="middle" dominant-baseline="central" transform="matrix(1 0 0 1 -35 -25)">Lập hóa đơn POS</text></g></g><g><path fill="#C0C0C0" stroke="none" paint-order="stroke fill markers" d=" M 222 274.5 C 222 262.073592 273.487248 252 337 252 C 400.512752 252 452 262.073592 452 274.5 C 452 286.926408 400.512752 297 337 297 C 273.487248 297 222 286.926408 222 274.5 Z" fill-opacity="0.2"/></g><g><path fill="#ffffff" stroke="none" paint-order="stroke fill markers" d=" M 215 267.5 C 215 255.07359200000002 266.487248 245 330 245 C 393.512752 245 445 255.07359200000002 445 267.5 C 445 279.926408 393.512752 290 330 290 C 266.487248 290 215 279.926408 215 267.5 Z"/></g><g><path fill="none" stroke="#000000" paint-order="fill stroke markers" d=" M 215 267.5 C 215 255.07359200000002 266.487248 245 330 245 C 393.512752 245 445 255.07359200000002 445 267.5 C 445 279.926408 393.512752 290 330 290 C 266.487248 290 215 279.926408 215 267.5 Z" stroke-miterlimit="10" stroke-dasharray=""/></g><g><path fill="none" stroke="#000000" paint-order="fill stroke markers" d=" M 215 290 L 444 290" stroke-miterlimit="10" stroke-dasharray=""/></g><g><path fill="none" stroke="#000000" paint-order="fill stroke markers" d=" M 215 300 L 444 300" stroke-miterlimit="10" stroke-dasharray=""/></g><g><g><path fill="none" stroke="none"/><text fill="#000000" stroke="none" font-family="Arial" font-size="13px" font-style="normal" font-weight="bold" text-decoration="undefined" x="365" y="293.5" text-anchor="middle" dominant-baseline="central" transform="matrix(1 0 0 1 -35 -25)">Quản lý khách hàng</text></g></g><g><path fill="#C0C0C0" stroke="none" paint-order="stroke fill markers" d=" M 497 274.5 C 497 262.073592 544.010096 252 602 252 C 659.989904 252 707 262.073592 707 274.5 C 707 286.926408 659.989904 297 602 297 C 544.010096 297 497 286.926408 497 274.5 Z" fill-opacity="0.2"/></g><g><path fill="#ffffff" stroke="none" paint-order="stroke fill markers" d=" M 490 267.5 C 490 255.07359200000002 537.010096 245 595 245 C 652.989904 245 700 255.07359200000002 700 267.5 C 700 279.926408 652.989904 290 595 290 C 537.010096 290 490 279.926408 490 267.5 Z"/></g><g><path fill="none" stroke="#000000" paint-order="fill stroke markers" d=" M 490 267.5 C 490 255.07359200000002 537.010096 245 595 245 C 652.989904 245 700 255.07359200000002 700 267.5 C 700 279.926408 652.989904 290 595 290 C 537.010096 290 490 279.926408 490 267.5 Z" stroke-miterlimit="10" stroke-dasharray=""/></g><g><path fill="none" stroke="#000000" paint-order="fill stroke markers" d=" M 490 290 L 699 290" stroke-miterlimit="10" stroke-dasharray=""/></g><g><path fill="none" stroke="#000000" paint-order="fill stroke markers" d=" M 490 300 L 699 300" stroke-miterlimit="10" stroke-dasharray=""/></g><g><g><path fill="none" stroke="none"/><text fill="#000000" stroke="none" font-family="Arial" font-size="13px" font-style="normal" font-weight="bold" text-decoration="undefined" x="630" y="293.5" text-anchor="middle" dominant-baseline="central" transform="matrix(1 0 0 1 -35 -25)">Xem hóa đơn</text></g></g><g><path fill="#C0C0C0" stroke="none" paint-order="stroke fill markers" d=" M 222 369.5 C 222 357.073592 273.487248 347 337 347 C 400.512752 347 452 357.073592 452 369.5 C 452 381.926408 400.512752 392 337 392 C 273.487248 392 222 381.926408 222 369.5 Z" fill-opacity="0.2"/></g><g><path fill="#ffffff" stroke="none" paint-order="stroke fill markers" d=" M 215 362.5 C 215 350.073592 266.487248 340 330 340 C 393.512752 340 445 350.073592 445 362.5 C 445 374.926408 393.512752 385 330 385 C 266.487248 385 215 374.926408 215 362.5 Z"/></g><g><path fill="none" stroke="#000000" paint-order="fill stroke markers" d=" M 215 362.5 C 215 350.073592 266.487248 340 330 340 C 393.512752 340 445 350.073592 445 362.5 C 445 374.926408 393.512752 385 330 385 C 266.487248 385 215 374.926408 215 362.5 Z" stroke-miterlimit="10" stroke-dasharray=""/></g><g><path fill="none" stroke="#000000" paint-order="fill stroke markers" d=" M 215 385 L 444 385" stroke-miterlimit="10" stroke-dasharray=""/></g><g><path fill="none" stroke="#000000" paint-order="fill stroke markers" d=" M 215 395 L 444 395" stroke-miterlimit="10" stroke-dasharray=""/></g><g><g><path fill="none" stroke="none"/><text fill="#000000" stroke="none" font-family="Arial" font-size="13px" font-style="normal" font-weight="bold" text-decoration="undefined" x="365" y="388.5" text-anchor="middle" dominant-baseline="central" transform="matrix(1 0 0 1 -35 -25)">Theo dõi kho hàng</text></g></g><g><path fill="#C0C0C0" stroke="none" paint-order="stroke fill markers" d=" M 497 369.5 C 497 357.073592 548.487248 347 612 347 C 675.512752 347 727 357.073592 727 369.5 C 727 381.926408 675.512752 392 612 392 C 548.487248 392 497 381.926408 497 369.5 Z" fill-opacity="0.2"/></g><g><path fill="#ffffff" stroke="none" paint-order="stroke fill markers" d=" M 490 362.5 C 490 350.073592 541.487248 340 605 340 C 668.512752 340 720 350.073592 720 362.5 C 720 374.926408 668.512752 385 605 385 C 541.487248 385 490 374.926408 490 362.5 Z"/></g><g><path fill="none" stroke="#000000" paint-order="fill stroke markers" d=" M 490 362.5 C 490 350.073592 541.487248 340 605 340 C 668.512752 340 720 350.073592 720 362.5 C 720 374.926408 668.512752 385 605 385 C 541.487248 385 490 374.926408 490 362.5 Z" stroke-miterlimit="10" stroke-dasharray=""/></g><g><path fill="none" stroke="#000000" paint-order="fill stroke markers" d=" M 490 385 L 719 385" stroke-miterlimit="10" stroke-dasharray=""/></g><g><path fill="none" stroke="#000000" paint-order="fill stroke markers" d=" M 490 395 L 719 395" stroke-miterlimit="10" stroke-dasharray=""/></g><g><g><path fill="none" stroke="none"/><text fill="#000000" stroke="none" font-family="Arial" font-size="13px" font-style="normal" font-weight="bold" text-decoration="undefined" x="640" y="388.5" text-anchor="middle" dominant-baseline="central" transform="matrix(1 0 0 1 -35 -25)">Tra cứu bảo hành</text></g></g><g><path fill="#C0C0C0" stroke="none" paint-order="stroke fill markers" d=" M 772 369.5 C 772 357.073592 823.487248 347 887 347 C 950.512752 347 1002 357.073592 1002 369.5 C 1002 381.926408 950.512752 392 887 392 C 823.487248 392 772 381.926408 772 369.5 Z" fill-opacity="0.2"/></g><g><path fill="#ffffff" stroke="none" paint-order="stroke fill markers" d=" M 765 362.5 C 765 350.073592 816.487248 340 880 340 C 943.512752 340 995 350.073592 995 362.5 C 995 374.926408 943.512752 385 880 385 C 816.487248 385 765 374.926408 765 362.5 Z"/></g><g><path fill="none" stroke="#000000" paint-order="fill stroke markers" d=" M 765 362.5 C 765 350.073592 816.487248 340 880 340 C 943.512752 340 995 350.073592 995 362.5 C 995 374.926408 943.512752 385 880 385 C 816.487248 385 765 374.926408 765 362.5 Z" stroke-miterlimit="10" stroke-dasharray=""/></g><g><path fill="none" stroke="#000000" paint-order="fill stroke markers" d=" M 765 385 L 994 385" stroke-miterlimit="10" stroke-dasharray=""/></g><g><path fill="none" stroke="#000000" paint-order="fill stroke markers" d=" M 765 395 L 994 395" stroke-miterlimit="10" stroke-dasharray=""/></g><g><g><path fill="none" stroke="none"/><text fill="#000000" stroke="none" font-family="Arial" font-size="13px" font-style="normal" font-weight="bold" text-decoration="undefined" x="915" y="388.5" text-anchor="middle" dominant-baseline="central" transform="matrix(1 0 0 1 -35 -25)">Xem ca làm cá nhân</text></g></g><g><path fill="#C0C0C0" stroke="none" paint-order="stroke fill markers" d=" M 222 507 C 222 490.431456 311.7668976 477 422.5 477 C 533.2331024 477 623 490.431456 623 507 C 623 523.568544 533.2331024 537 422.5 537 C 311.7668976 537 222 523.568544 222 507 Z" fill-opacity="0.2"/></g><g><path fill="#ffffff" stroke="none" paint-order="stroke fill markers" d=" M 215 500 C 215 483.431456 304.7668976 470 415.5 470 C 526.2331024 470 616 483.431456 616 500 C 616 516.568544 526.2331024 530 415.5 530 C 304.7668976 530 215 516.568544 215 500 Z"/></g><g><path fill="none" stroke="#000000" paint-order="fill stroke markers" d=" M 215 500 C 215 483.431456 304.7668976 470 415.5 470 C 526.2331024 470 616 483.431456 616 500 C 616 516.568544 526.2331024 530 415.5 530 C 304.7668976 530 215 516.568544 215 500 Z" stroke-miterlimit="10" stroke-dasharray=""/></g><g><path fill="none" stroke="#000000" paint-order="fill stroke markers" d=" M 215 530 L 615 530" stroke-miterlimit="10" stroke-dasharray=""/></g><g><path fill="none" stroke="#000000" paint-order="fill stroke markers" d=" M 215 540 L 615 540" stroke-miterlimit="10" stroke-dasharray=""/></g><g><g><path fill="none" stroke="none"/><text fill="#000000" stroke="none" font-family="Arial" font-size="13px" font-style="normal" font-weight="bold" text-decoration="undefined" x="450.5" y="526" text-anchor="middle" dominant-baseline="central" transform="matrix(1 0 0 1 -35 -25)">Quản lý sản phẩm, danh mục và khuyến mãi</text></g></g><g><path fill="#C0C0C0" stroke="none" paint-order="stroke fill markers" d=" M 572 507 C 572 490.431456 645.2014352 477 735.5 477 C 825.7985648 477 899 490.431456 899 507 C 899 523.568544 825.7985648 537 735.5 537 C 645.2014352 537 572 523.568544 572 507 Z" fill-opacity="0.2"/></g><g><path fill="#ffffff" stroke="none" paint-order="stroke fill markers" d=" M 565 500 C 565 483.431456 638.2014352 470 728.5 470 C 818.7985648 470 892 483.431456 892 500 C 892 516.568544 818.7985648 530 728.5 530 C 638.2014352 530 565 516.568544 565 500 Z"/></g><g><path fill="none" stroke="#000000" paint-order="fill stroke markers" d=" M 565 500 C 565 483.431456 638.2014352 470 728.5 470 C 818.7985648 470 892 483.431456 892 500 C 892 516.568544 818.7985648 530 728.5 530 C 638.2014352 530 565 516.568544 565 500 Z" stroke-miterlimit="10" stroke-dasharray=""/></g><g><path fill="none" stroke="#000000" paint-order="fill stroke markers" d=" M 565 530 L 891 530" stroke-miterlimit="10" stroke-dasharray=""/></g><g><path fill="none" stroke="#000000" paint-order="fill stroke markers" d=" M 565 540 L 891 540" stroke-miterlimit="10" stroke-dasharray=""/></g><g><g><path fill="none" stroke="none"/><text fill="#000000" stroke="none" font-family="Arial" font-size="13px" font-style="normal" font-weight="bold" text-decoration="undefined" x="763.5" y="526" text-anchor="middle" dominant-baseline="central" transform="matrix(1 0 0 1 -35 -25)">Nhập hàng và quản lý nhà cung cấp</text></g></g><g><path fill="#C0C0C0" stroke="none" paint-order="stroke fill markers" d=" M 912 507 C 912 490.431456 974.680128 477 1052 477 C 1129.319872 477 1192 490.431456 1192 507 C 1192 523.568544 1129.319872 537 1052 537 C 974.680128 537 912 523.568544 912 507 Z" fill-opacity="0.2"/></g><g><path fill="#ffffff" stroke="none" paint-order="stroke fill markers" d=" M 905 500 C 905 483.431456 967.680128 470 1045 470 C 1122.319872 470 1185 483.431456 1185 500 C 1185 516.568544 1122.319872 530 1045 530 C 967.680128 530 905 516.568544 905 500 Z"/></g><g><path fill="none" stroke="#000000" paint-order="fill stroke markers" d=" M 905 500 C 905 483.431456 967.680128 470 1045 470 C 1122.319872 470 1185 483.431456 1185 500 C 1185 516.568544 1122.319872 530 1045 530 C 967.680128 530 905 516.568544 905 500 Z" stroke-miterlimit="10" stroke-dasharray=""/></g><g><path fill="none" stroke="#000000" paint-order="fill stroke markers" d=" M 905 530 L 1184 530" stroke-miterlimit="10" stroke-dasharray=""/></g><g><path fill="none" stroke="#000000" paint-order="fill stroke markers" d=" M 905 540 L 1184 540" stroke-miterlimit="10" stroke-dasharray=""/></g><g><g><path fill="none" stroke="none"/><text fill="#000000" stroke="none" font-family="Arial" font-size="13px" font-style="normal" font-weight="bold" text-decoration="undefined" x="1080" y="526" text-anchor="middle" dominant-baseline="central" transform="matrix(1 0 0 1 -35 -25)">Kiểm kê và điều chỉnh tồn kho</text></g></g><g><path fill="#C0C0C0" stroke="none" paint-order="stroke fill markers" d=" M 222 622 C 222 608.19288 284.68012799999997 597 362 597 C 439.31987200000003 597 502 608.19288 502 622 C 502 635.80712 439.31987200000003 647 362 647 C 284.68012799999997 647 222 635.80712 222 622 Z" fill-opacity="0.2"/></g><g><path fill="#ffffff" stroke="none" paint-order="stroke fill markers" d=" M 215 615 C 215 601.19288 277.68012799999997 590 355 590 C 432.31987200000003 590 495 601.19288 495 615 C 495 628.80712 432.31987200000003 640 355 640 C 277.68012799999997 640 215 628.80712 215 615 Z"/></g><g><path fill="none" stroke="#000000" paint-order="fill stroke markers" d=" M 215 615 C 215 601.19288 277.68012799999997 590 355 590 C 432.31987200000003 590 495 601.19288 495 615 C 495 628.80712 432.31987200000003 640 355 640 C 277.68012799999997 640 215 628.80712 215 615 Z" stroke-miterlimit="10" stroke-dasharray=""/></g><g><path fill="none" stroke="#000000" paint-order="fill stroke markers" d=" M 215 640 L 494 640" stroke-miterlimit="10" stroke-dasharray=""/></g><g><path fill="none" stroke="#000000" paint-order="fill stroke markers" d=" M 215 650 L 494 650" stroke-miterlimit="10" stroke-dasharray=""/></g><g><g><path fill="none" stroke="none"/><text fill="#000000" stroke="none" font-family="Arial" font-size="13px" font-style="normal" font-weight="bold" text-decoration="undefined" x="390" y="641" text-anchor="middle" dominant-baseline="central" transform="matrix(1 0 0 1 -35 -25)">Quản lý hóa đơn</text></g></g><g><path fill="#C0C0C0" stroke="none" paint-order="stroke fill markers" d=" M 572 622 C 572 608.19288 634.680128 597 712 597 C 789.319872 597 852 608.19288 852 622 C 852 635.80712 789.319872 647 712 647 C 634.680128 647 572 635.80712 572 622 Z" fill-opacity="0.2"/></g><g><path fill="#ffffff" stroke="none" paint-order="stroke fill markers" d=" M 565 615 C 565 601.19288 627.680128 590 705 590 C 782.319872 590 845 601.19288 845 615 C 845 628.80712 782.319872 640 705 640 C 627.680128 640 565 628.80712 565 615 Z"/></g><g><path fill="none" stroke="#000000" paint-order="fill stroke markers" d=" M 565 615 C 565 601.19288 627.680128 590 705 590 C 782.319872 590 845 601.19288 845 615 C 845 628.80712 782.319872 640 705 640 C 627.680128 640 565 628.80712 565 615 Z" stroke-miterlimit="10" stroke-dasharray=""/></g><g><path fill="none" stroke="#000000" paint-order="fill stroke markers" d=" M 565 640 L 844 640" stroke-miterlimit="10" stroke-dasharray=""/></g><g><path fill="none" stroke="#000000" paint-order="fill stroke markers" d=" M 565 650 L 844 650" stroke-miterlimit="10" stroke-dasharray=""/></g><g><g><path fill="none" stroke="none"/><text fill="#000000" stroke="none" font-family="Arial" font-size="13px" font-style="normal" font-weight="bold" text-decoration="undefined" x="740" y="641" text-anchor="middle" dominant-baseline="central" transform="matrix(1 0 0 1 -35 -25)">Quản lý bảo hành</text></g></g><g><path fill="#C0C0C0" stroke="none" paint-order="stroke fill markers" d=" M 912 622 C 912 608.19288 974.680128 597 1052 597 C 1129.319872 597 1192 608.19288 1192 622 C 1192 635.80712 1129.319872 647 1052 647 C 974.680128 647 912 635.80712 912 622 Z" fill-opacity="0.2"/></g><g><path fill="#ffffff" stroke="none" paint-order="stroke fill markers" d=" M 905 615 C 905 601.19288 967.680128 590 1045 590 C 1122.319872 590 1185 601.19288 1185 615 C 1185 628.80712 1122.319872 640 1045 640 C 967.680128 640 905 628.80712 905 615 Z"/></g><g><path fill="none" stroke="#000000" paint-order="fill stroke markers" d=" M 905 615 C 905 601.19288 967.680128 590 1045 590 C 1122.319872 590 1185 601.19288 1185 615 C 1185 628.80712 1122.319872 640 1045 640 C 967.680128 640 905 628.80712 905 615 Z" stroke-miterlimit="10" stroke-dasharray=""/></g><g><path fill="none" stroke="#000000" paint-order="fill stroke markers" d=" M 905 640 L 1184 640" stroke-miterlimit="10" stroke-dasharray=""/></g><g><path fill="none" stroke="#000000" paint-order="fill stroke markers" d=" M 905 650 L 1184 650" stroke-miterlimit="10" stroke-dasharray=""/></g><g><g><path fill="none" stroke="none"/><text fill="#000000" stroke="none" font-family="Arial" font-size="13px" font-style="normal" font-weight="bold" text-decoration="undefined" x="1080" y="641" text-anchor="middle" dominant-baseline="central" transform="matrix(1 0 0 1 -35 -25)">Quản lý nhân viên và ca làm</text></g></g><g><path fill="#C0C0C0" stroke="none" paint-order="stroke fill markers" d=" M 222 742 C 222 728.19288 284.68012799999997 717 362 717 C 439.31987200000003 717 502 728.19288 502 742 C 502 755.80712 439.31987200000003 767 362 767 C 284.68012799999997 767 222 755.80712 222 742 Z" fill-opacity="0.2"/></g><g><path fill="#ffffff" stroke="none" paint-order="stroke fill markers" d=" M 215 735 C 215 721.19288 277.68012799999997 710 355 710 C 432.31987200000003 710 495 721.19288 495 735 C 495 748.80712 432.31987200000003 760 355 760 C 277.68012799999997 760 215 748.80712 215 735 Z"/></g><g><path fill="none" stroke="#000000" paint-order="fill stroke markers" d=" M 215 735 C 215 721.19288 277.68012799999997 710 355 710 C 432.31987200000003 710 495 721.19288 495 735 C 495 748.80712 432.31987200000003 760 355 760 C 277.68012799999997 760 215 748.80712 215 735 Z" stroke-miterlimit="10" stroke-dasharray=""/></g><g><path fill="none" stroke="#000000" paint-order="fill stroke markers" d=" M 215 760 L 494 760" stroke-miterlimit="10" stroke-dasharray=""/></g><g><path fill="none" stroke="#000000" paint-order="fill stroke markers" d=" M 215 770 L 494 770" stroke-miterlimit="10" stroke-dasharray=""/></g><g><g><path fill="none" stroke="none"/><text fill="#000000" stroke="none" font-family="Arial" font-size="13px" font-style="normal" font-weight="bold" text-decoration="undefined" x="390" y="761" text-anchor="middle" dominant-baseline="central" transform="matrix(1 0 0 1 -35 -25)">Phân tích báo cáo kinh doanh</text></g></g><g><path fill="#C0C0C0" stroke="none" paint-order="stroke fill markers" d=" M 572 742 C 572 728.19288 634.680128 717 712 717 C 789.319872 717 852 728.19288 852 742 C 852 755.80712 789.319872 767 712 767 C 634.680128 767 572 755.80712 572 742 Z" fill-opacity="0.2"/></g><g><path fill="#ffffff" stroke="none" paint-order="stroke fill markers" d=" M 565 735 C 565 721.19288 627.680128 710 705 710 C 782.319872 710 845 721.19288 845 735 C 845 748.80712 782.319872 760 705 760 C 627.680128 760 565 748.80712 565 735 Z"/></g><g><path fill="none" stroke="#000000" paint-order="fill stroke markers" d=" M 565 735 C 565 721.19288 627.680128 710 705 710 C 782.319872 710 845 721.19288 845 735 C 845 748.80712 782.319872 760 705 760 C 627.680128 760 565 748.80712 565 735 Z" stroke-miterlimit="10" stroke-dasharray=""/></g><g><path fill="none" stroke="#000000" paint-order="fill stroke markers" d=" M 565 760 L 844 760" stroke-miterlimit="10" stroke-dasharray=""/></g><g><path fill="none" stroke="#000000" paint-order="fill stroke markers" d=" M 565 770 L 844 770" stroke-miterlimit="10" stroke-dasharray=""/></g><g><g><path fill="none" stroke="none"/><text fill="#000000" stroke="none" font-family="Arial" font-size="13px" font-style="normal" font-weight="bold" text-decoration="undefined" x="740" y="761" text-anchor="middle" dominant-baseline="central" transform="matrix(1 0 0 1 -35 -25)">Xem nhật ký hoạt động</text></g></g><g><path fill="#C0C0C0" stroke="none" paint-order="stroke fill markers" d=" M 912 742 C 912 728.19288 974.680128 717 1052 717 C 1129.319872 717 1192 728.19288 1192 742 C 1192 755.80712 1129.319872 767 1052 767 C 974.680128 767 912 755.80712 912 742 Z" fill-opacity="0.2"/></g><g><path fill="#ffffff" stroke="none" paint-order="stroke fill markers" d=" M 905 735 C 905 721.19288 967.680128 710 1045 710 C 1122.319872 710 1185 721.19288 1185 735 C 1185 748.80712 1122.319872 760 1045 760 C 967.680128 760 905 748.80712 905 735 Z"/></g><g><path fill="none" stroke="#000000" paint-order="fill stroke markers" d=" M 905 735 C 905 721.19288 967.680128 710 1045 710 C 1122.319872 710 1185 721.19288 1185 735 C 1185 748.80712 1122.319872 760 1045 760 C 967.680128 760 905 748.80712 905 735 Z" stroke-miterlimit="10" stroke-dasharray=""/></g><g><path fill="none" stroke="#000000" paint-order="fill stroke markers" d=" M 905 760 L 1184 760" stroke-miterlimit="10" stroke-dasharray=""/></g><g><path fill="none" stroke="#000000" paint-order="fill stroke markers" d=" M 905 770 L 1184 770" stroke-miterlimit="10" stroke-dasharray=""/></g><g><g><path fill="none" stroke="none"/><text fill="#000000" stroke="none" font-family="Arial" font-size="13px" font-style="normal" font-weight="bold" text-decoration="undefined" x="1080" y="761" text-anchor="middle" dominant-baseline="central" transform="matrix(1 0 0 1 -35 -25)">Quản lý cài đặt hệ thống</text></g></g></g></svg>